<svg width="26" height="27" viewBox="0 0 26 27" fill="none" xmlns="http://www.w3.org/2000/svg">
<path d="M24.8734 13.4052C24.8734 20.1365 19.4172 25.5931 12.6867 25.5931C5.95621 25.5931 0.5 20.1365 0.5 13.4052C0.5 6.67396 5.95621 1.21729 12.6867 1.21729C19.4172 1.21729 24.8734 6.67396 24.8734 13.4052Z" stroke="#BDBDBD"/>
<path d="M15.4892 13.6704C15.6356 13.524 15.6356 13.2866 15.4892 13.1401L13.1027 10.7536C12.9563 10.6072 12.7188 10.6072 12.5724 10.7536C12.4259 10.9001 12.4259 11.1375 12.5724 11.284L14.6937 13.4053L12.5724 15.5266C12.4259 15.673 12.4259 15.9105 12.5724 16.0569C12.7188 16.2034 12.9563 16.2034 13.1027 16.0569L15.4892 13.6704ZM13.9554 13.7803L15.224 13.7803L15.224 13.0303L13.9554 13.0303L13.9554 13.7803Z" fill="#2F3090"/>
</svg>
