<svg width="26" height="26" viewBox="0 0 26 26" fill="none" xmlns="http://www.w3.org/2000/svg">
<path d="M12.6867 0.500123C19.4172 0.500123 24.8734 5.9568 24.8734 12.688C24.8734 19.4193 19.4172 24.876 12.6867 24.876C5.95621 24.876 0.5 19.4193 0.499999 12.6881C0.499999 5.9568 5.95621 0.500124 12.6867 0.500123Z" stroke="#BDBDBD"/>
<path d="M12.9519 9.88547C12.8054 9.73902 12.568 9.73902 12.4215 9.88547L10.0351 12.272C9.88861 12.4184 9.88861 12.6558 10.0351 12.8023C10.1815 12.9487 10.4189 12.9487 10.5654 12.8023L12.6867 10.681L14.808 12.8023C14.9545 12.9487 15.1919 12.9487 15.3384 12.8023C15.4848 12.6558 15.4848 12.4184 15.3384 12.272L12.9519 9.88547ZM13.0617 11.4194L13.0617 10.1506L12.3117 10.1506L12.3117 11.4194L13.0617 11.4194Z" fill="#2F3090"/>
</svg>
